<svg width="89" height="109" viewBox="0 0 89 109" fill="none" xmlns="http://www.w3.org/2000/svg">
<path d="M56.9258 29.2061C61.159 30.946 65.0234 33.4512 68.3188 36.5923C71.6408 21.0568 70.9759 10.4201 65.9704 8.32115L65.965 8.31886C60.9594 6.22339 52.7082 13.1181 43.6268 26.2339C48.2093 26.3983 52.7205 27.4066 56.9258 29.2061Z" fill="white"/>
<path d="M21.4533 94.3251C18.7982 104.809 20.2715 107.599 22.7829 108.652C25.2942 109.705 28.3488 108.812 34.1949 99.6687L21.4533 94.3251Z" fill="white"/>
<path d="M55.4176 75.6162C58.3404 68.1789 61.1708 60.2613 63.8159 51.8729C65.1715 47.5737 66.4176 43.3584 67.554 39.2268C60.7531 32.7006 51.72 28.9111 42.2269 28.6018C39.9746 32.3078 37.7337 36.149 35.5042 40.1254C31.1657 47.873 27.2981 55.4258 23.8438 62.7119C14.5886 64.8704 5.51614 72.5345 0 85.2762L11.6921 90.1795C13.83 91.0793 15.3354 91.0794 16.268 88.9328L16.2783 88.8893L41.7601 99.5766C40.7727 101.849 41.8021 102.808 43.9505 103.709L55.6864 108.632C61.3065 95.6456 60.5245 83.637 55.4176 75.6162ZM53.2719 37.645C54.2334 38.0482 55.0519 38.7229 55.6239 39.5839C56.1958 40.445 56.4955 41.4537 56.485 42.4823C56.4745 43.511 56.1543 44.5135 55.565 45.3631C54.9756 46.2126 54.1435 46.8711 53.1739 47.2552C52.2043 47.6393 51.1408 47.7317 50.1178 47.5209C49.0948 47.31 48.1583 46.8053 47.4268 46.0706C46.6952 45.3359 46.2015 44.4041 46.008 43.3932C45.8145 42.3823 45.9298 41.3376 46.3395 40.3912C46.8891 39.1223 47.928 38.1203 49.228 37.6053C50.528 37.0903 51.9826 37.1046 53.2719 37.645ZM46.5241 53.2332C47.4855 53.6364 48.3039 54.311 48.8754 55.1724C49.4473 56.0332 49.7469 57.0413 49.7362 58.0702C49.7257 59.0984 49.4054 60.1012 48.816 60.9505C48.2267 61.7999 47.3948 62.4578 46.4254 62.8417C45.4557 63.2262 44.3923 63.3186 43.3695 63.1078C42.3467 62.8969 41.4106 62.3917 40.6791 61.6573C39.9476 60.9228 39.4538 59.9913 39.2606 58.9801C39.0671 57.9695 39.1825 56.9249 39.5921 55.9787C40.1416 54.7099 41.1806 53.7077 42.4804 53.1932C43.7805 52.6782 45.235 52.6926 46.5241 53.2332ZM35.6335 78.3905C34.6721 77.9873 33.8538 77.3127 33.2822 76.4513C32.7104 75.5905 32.4107 74.5823 32.4215 73.5535C32.4319 72.5252 32.7523 71.5225 33.3417 70.6731C33.931 69.8237 34.7629 69.1658 35.7326 68.7813C36.702 68.3974 37.7653 68.305 38.7882 68.5159C39.811 68.7267 40.7473 69.2314 41.4785 69.9664C42.2101 70.7008 42.7038 71.6323 42.8971 72.6435C43.0907 73.6542 42.9753 74.6988 42.5656 75.6449C42.2936 76.2731 41.8986 76.8424 41.4028 77.3208C40.9073 77.7986 40.3207 78.1761 39.677 78.431C39.0332 78.6859 38.3448 78.8136 37.6508 78.8066C36.9569 78.7996 36.2718 78.6584 35.6335 78.3905Z" fill="white"/>
<path d="M52.4109 39.6416C51.6618 39.34 50.8223 39.3407 50.0737 39.6434C49.3251 39.9462 48.7276 40.5267 48.4104 41.2596C48.0932 41.9924 48.0816 42.8187 48.3783 43.5598C48.675 44.3009 49.256 44.8973 49.9959 45.2203C50.7475 45.5355 51.5955 45.5439 52.3534 45.2437C53.1114 44.9434 53.717 44.3592 54.0373 43.6194C54.3575 42.8796 54.3661 42.0449 54.0611 41.2989C53.7561 40.553 53.1625 39.9568 52.4109 39.6416Z" fill="white"/>
<path d="M45.6577 55.2274C44.9087 54.9256 44.0691 54.9263 43.3205 55.2293C42.5718 55.5322 41.9743 56.1128 41.6573 56.8452C41.34 57.5782 41.3283 58.4046 41.6252 59.1455C41.9217 59.8869 42.5028 60.4834 43.2427 60.8061C43.9942 61.1217 44.8423 61.1302 45.6005 60.8299C46.3584 60.5301 46.9645 59.9454 47.2849 59.206C47.6054 58.4659 47.6141 57.6312 47.309 56.8854C47.0043 56.1391 46.4092 55.543 45.6577 55.2274Z" fill="white"/>
<path d="M38.9145 70.8182L38.9115 70.817C38.1625 70.5151 37.323 70.5158 36.5744 70.8188C35.8257 71.1218 35.2282 71.7023 34.9112 72.4347C34.5938 73.1677 34.5823 73.9942 34.879 74.735C35.1756 75.4765 35.7566 76.073 36.4965 76.3956C37.2482 76.7106 38.096 76.7197 38.8541 76.4193C39.6121 76.1189 40.2179 75.5347 40.5381 74.7952C40.8583 74.0557 40.867 73.221 40.5622 72.4746C40.2571 71.7289 39.666 71.1338 38.9145 70.8182Z" fill="white"/>
<path d="M71.4664 37.5271C74.2105 24.6915 75.7264 8.64647 67.3499 5.12102L67.2671 5.08616C60.5405 2.34593 51.6149 8.92301 40.7361 24.6351L40.7128 24.6689L37.4246 29.6302C35.983 31.8934 34.5442 34.2668 33.1351 36.7056C32.8547 37.1906 32.5745 37.6804 32.2943 38.1749C30.4341 41.4593 28.5769 44.949 26.7606 48.5701C26.0657 47.3463 25.4501 46.0806 24.9177 44.7802C22.3987 38.6081 21.8569 31.8256 23.3648 25.3419C24.8727 18.8581 28.3583 12.983 33.3544 8.50419C38.3504 4.02525 44.6181 1.15663 51.3173 0.282769C58.0164 -0.59109 64.8269 0.571689 70.8358 3.61511C76.8446 6.65851 81.7647 11.4372 84.9364 17.3105C88.1084 23.184 89.3799 29.8711 88.581 36.4759C87.7827 43.0808 84.9518 49.2876 80.4684 54.2642C75.9843 59.2405 70.0623 62.7492 63.4957 64.3195C64.9325 60.4262 66.2393 56.59 67.3869 52.8931C67.5542 52.3534 67.7191 51.8151 67.8818 51.2782C68.6912 48.592 69.4374 45.9263 70.0946 43.34L71.4664 37.5271Z" fill="white"/>
</svg>
