<svg width="362" height="109" viewBox="0 0 362 109" fill="none" xmlns="http://www.w3.org/2000/svg">
<path d="M103.483 73.5229V80.383C103.483 81.0576 103.613 81.523 103.873 81.7793C104.134 82.0356 104.593 82.1638 105.251 82.1638H106.567V83.378H105.025C104.011 83.378 103.257 83.1486 102.763 82.69C102.27 82.2178 102.023 81.4488 102.023 80.383V73.5229H100.461V72.329H102.023V69.5566H103.483V72.329H106.567V73.5229H103.483Z" fill="white"/>
<path d="M113.669 72.1266C114.519 72.1266 115.28 72.302 115.951 72.6528C116.636 73.0035 117.171 73.5432 117.555 74.2717C117.952 74.9867 118.151 75.8636 118.151 76.9024V83.378H116.732V77.0643C116.732 75.8636 116.424 74.9462 115.807 74.3121C115.204 73.6781 114.375 73.361 113.319 73.361C112.237 73.361 111.373 73.6983 110.729 74.3728C110.085 75.0474 109.763 76.039 109.763 77.3476V83.378H108.323V68.4032H109.763V74.211C110.119 73.5499 110.64 73.0373 111.325 72.673C112.024 72.3088 112.805 72.1266 113.669 72.1266Z" fill="white"/>
<path d="M130.874 77.2869C130.874 77.7725 130.86 78.1435 130.832 78.3999H121.519C121.56 79.2363 121.766 79.9513 122.136 80.5449C122.506 81.1385 122.992 81.5904 123.595 81.9007C124.199 82.1975 124.856 82.3459 125.569 82.3459C126.501 82.3459 127.283 82.1233 127.913 81.6781C128.557 81.2329 128.982 80.6326 129.188 79.8771H130.709C130.435 80.9564 129.846 81.84 128.941 82.5281C128.05 83.2026 126.926 83.5399 125.569 83.5399C124.514 83.5399 123.568 83.3105 122.732 82.8518C121.896 82.3797 121.238 81.7186 120.758 80.8687C120.292 80.0053 120.059 79.0002 120.059 77.8535C120.059 76.7068 120.292 75.7017 120.758 74.8383C121.224 73.9749 121.875 73.3138 122.711 72.8551C123.548 72.3964 124.5 72.1671 125.569 72.1671C126.638 72.1671 127.57 72.3964 128.365 72.8551C129.174 73.3138 129.791 73.9344 130.216 74.7169C130.654 75.4858 130.874 76.3425 130.874 77.2869ZM129.414 77.2464C129.428 76.4235 129.256 75.7219 128.9 75.1418C128.557 74.5617 128.084 74.1233 127.481 73.8265C126.878 73.5297 126.22 73.3813 125.508 73.3813C124.438 73.3813 123.527 73.7185 122.773 74.3931C122.019 75.0676 121.601 76.0187 121.519 77.2464H129.414Z" fill="white"/>
<path d="M139.334 74.7776C139.704 74.0086 140.272 73.3813 141.04 72.8956C141.821 72.4099 142.74 72.1671 143.795 72.1671C144.823 72.1671 145.741 72.4032 146.55 72.8754C147.359 73.3341 147.989 73.9951 148.442 74.8585C148.908 75.7084 149.141 76.7 149.141 77.8332C149.141 78.9665 148.908 79.9648 148.442 80.8282C147.989 81.6916 147.352 82.3594 146.529 82.8316C145.721 83.3038 144.809 83.5399 143.795 83.5399C142.726 83.5399 141.801 83.3038 141.019 82.8316C140.252 82.3459 139.69 81.7186 139.334 80.9496V83.378H137.915V68.4032H139.334V74.7776ZM147.681 77.8332C147.681 76.9159 147.496 76.1267 147.126 75.4656C146.769 74.7911 146.276 74.2784 145.645 73.9277C145.015 73.5769 144.302 73.4015 143.507 73.4015C142.74 73.4015 142.034 73.5836 141.39 73.9479C140.759 74.3121 140.259 74.8315 139.889 75.5061C139.519 76.1806 139.334 76.9631 139.334 77.8535C139.334 78.7439 139.519 79.5263 139.889 80.2009C140.259 80.8754 140.759 81.3948 141.39 81.7591C142.034 82.1233 142.74 82.3055 143.507 82.3055C144.302 82.3055 145.015 82.1301 145.645 81.7793C146.276 81.4151 146.769 80.8957 147.126 80.2211C147.496 79.5331 147.681 78.7371 147.681 77.8332Z" fill="white"/>
<path d="M161.328 77.2869C161.328 77.7725 161.315 78.1435 161.287 78.3999H151.974C152.015 79.2363 152.221 79.9513 152.591 80.5449C152.961 81.1385 153.447 81.5904 154.05 81.9007C154.653 82.1975 155.311 82.3459 156.024 82.3459C156.956 82.3459 157.737 82.1233 158.368 81.6781C159.012 81.2329 159.437 80.6326 159.643 79.8771H161.164C160.89 80.9564 160.3 81.84 159.396 82.5281C158.505 83.2026 157.381 83.5399 156.024 83.5399C154.969 83.5399 154.023 83.3105 153.187 82.8518C152.351 82.3797 151.693 81.7186 151.213 80.8687C150.747 80.0053 150.514 79.0002 150.514 77.8535C150.514 76.7068 150.747 75.7017 151.213 74.8383C151.679 73.9749 152.33 73.3138 153.166 72.8551C154.002 72.3964 154.955 72.1671 156.024 72.1671C157.093 72.1671 158.025 72.3964 158.82 72.8551C159.629 73.3138 160.246 73.9344 160.671 74.7169C161.109 75.4858 161.328 76.3425 161.328 77.2869ZM159.869 77.2464C159.882 76.4235 159.711 75.7219 159.355 75.1418C159.012 74.5617 158.539 74.1233 157.936 73.8265C157.333 73.5297 156.675 73.3813 155.962 73.3813C154.893 73.3813 153.982 73.7185 153.228 74.3931C152.474 75.0676 152.056 76.0187 151.974 77.2464H159.869Z" fill="white"/>
<path d="M167.21 83.5399C165.922 83.5399 164.866 83.2498 164.044 82.6697C163.235 82.0761 162.783 81.2734 162.687 80.2616H164.167C164.236 80.8822 164.53 81.3881 165.051 81.7793C165.586 82.1571 166.298 82.3459 167.189 82.3459C167.971 82.3459 168.581 82.1638 169.019 81.7996C169.472 81.4353 169.698 80.9834 169.698 80.4437C169.698 80.066 169.574 79.7557 169.328 79.5129C169.081 79.27 168.766 79.0812 168.382 78.9462C168.012 78.7978 167.505 78.6427 166.86 78.4808C166.024 78.265 165.346 78.0491 164.825 77.8332C164.304 77.6174 163.859 77.3004 163.489 76.8821C163.132 76.4504 162.954 75.8771 162.954 75.1621C162.954 74.6224 163.119 74.1233 163.448 73.6646C163.776 73.2059 164.243 72.8416 164.846 72.5718C165.449 72.302 166.134 72.1671 166.902 72.1671C168.108 72.1671 169.081 72.4706 169.821 73.0777C170.561 73.6713 170.959 74.4943 171.014 75.5466H169.574C169.533 74.899 169.273 74.3796 168.793 73.9884C168.327 73.5836 167.683 73.3813 166.86 73.3813C166.134 73.3813 165.545 73.5499 165.092 73.8872C164.64 74.2244 164.414 74.6427 164.414 75.1418C164.414 75.5735 164.544 75.931 164.804 76.2143C165.079 76.4842 165.414 76.7 165.812 76.8619C166.209 77.0103 166.744 77.1789 167.416 77.3678C168.224 77.5837 168.868 77.7928 169.348 77.9951C169.828 78.1975 170.239 78.4943 170.582 78.8855C170.924 79.2768 171.103 79.7962 171.116 80.4437C171.116 81.0373 170.952 81.5702 170.623 82.0424C170.294 82.5011 169.835 82.8653 169.245 83.1351C168.656 83.405 167.978 83.5399 167.21 83.5399Z" fill="white"/>
<path d="M175.08 73.5229V80.383C175.08 81.0576 175.21 81.523 175.47 81.7793C175.731 82.0356 176.19 82.1638 176.848 82.1638H178.163V83.378H176.621C175.607 83.378 174.853 83.1486 174.36 82.69C173.866 82.2178 173.62 81.4488 173.62 80.383V73.5229H172.057V72.329H173.62V69.5566H175.08V72.329H178.163V73.5229H175.08Z" fill="white"/>
<path d="M186.364 74.7573C186.72 74.0153 187.282 73.4015 188.05 72.9158C188.831 72.4167 189.756 72.1671 190.825 72.1671C191.84 72.1671 192.751 72.4032 193.56 72.8754C194.382 73.3341 195.02 73.9951 195.472 74.8585C195.938 75.7084 196.171 76.7 196.171 77.8332C196.171 78.9665 195.938 79.9648 195.472 80.8282C195.02 81.6916 194.382 82.3594 193.56 82.8316C192.751 83.3038 191.84 83.5399 190.825 83.5399C189.77 83.5399 188.852 83.297 188.07 82.8114C187.289 82.3122 186.72 81.6916 186.364 80.9496V88.5989H184.945V72.329H186.364V74.7573ZM194.711 77.8332C194.711 76.9159 194.526 76.1267 194.156 75.4656C193.8 74.7911 193.306 74.2784 192.676 73.9277C192.045 73.5769 191.332 73.4015 190.538 73.4015C189.77 73.4015 189.064 73.5836 188.42 73.9479C187.789 74.3121 187.289 74.8315 186.919 75.5061C186.549 76.1806 186.364 76.9631 186.364 77.8535C186.364 78.7439 186.549 79.5263 186.919 80.2009C187.289 80.8754 187.789 81.3948 188.42 81.7591C189.064 82.1233 189.77 82.3055 190.538 82.3055C191.332 82.3055 192.045 82.1301 192.676 81.7793C193.306 81.4151 193.8 80.8957 194.156 80.2211C194.526 79.5331 194.711 78.7371 194.711 77.8332Z" fill="white"/>
<path d="M197.544 77.8332C197.544 76.7 197.77 75.7084 198.223 74.8585C198.689 73.9951 199.326 73.3341 200.135 72.8754C200.957 72.4032 201.882 72.1671 202.91 72.1671C203.98 72.1671 204.898 72.4099 205.665 72.8956C206.447 73.3813 207.009 74.0019 207.351 74.7573V72.329H208.79V83.378H207.351V80.9294C206.995 81.6849 206.426 82.3122 205.645 82.8114C204.877 83.297 203.959 83.5399 202.89 83.5399C201.876 83.5399 200.957 83.3038 200.135 82.8316C199.326 82.3594 198.689 81.6916 198.223 80.8282C197.77 79.9648 197.544 78.9665 197.544 77.8332ZM207.351 77.8535C207.351 76.9631 207.166 76.1806 206.796 75.5061C206.426 74.8315 205.919 74.3121 205.275 73.9479C204.644 73.5836 203.945 73.4015 203.178 73.4015C202.383 73.4015 201.67 73.5769 201.039 73.9277C200.409 74.2784 199.909 74.7911 199.539 75.4656C199.182 76.1267 199.004 76.9159 199.004 77.8332C199.004 78.7371 199.182 79.5331 199.539 80.2211C199.909 80.8957 200.409 81.4151 201.039 81.7793C201.67 82.1301 202.383 82.3055 203.178 82.3055C203.945 82.3055 204.644 82.1233 205.275 81.7591C205.919 81.3948 206.426 80.8754 206.796 80.2009C207.166 79.5263 207.351 78.7439 207.351 77.8535Z" fill="white"/>
<path d="M212.898 74.2919C213.214 73.6039 213.693 73.071 214.338 72.6932C214.995 72.3155 215.797 72.1266 216.743 72.1266V73.6039H216.352C215.311 73.6039 214.475 73.8804 213.844 74.4336C213.214 74.9867 212.898 75.9108 212.898 77.2059V83.378H211.459V72.329H212.898V74.2919Z" fill="white"/>
<path d="M220.162 73.5229V80.383C220.162 81.0576 220.292 81.523 220.553 81.7793C220.813 82.0356 221.272 82.1638 221.93 82.1638H223.246V83.378H221.704C220.69 83.378 219.936 83.1486 219.443 82.69C218.949 82.2178 218.702 81.4488 218.702 80.383V73.5229H217.14V72.329H218.702V69.5566H220.162V72.329H223.246V73.5229H220.162Z" fill="white"/>
<path d="M230.266 72.1266C231.609 72.1266 232.706 72.5381 233.556 73.361C234.406 74.1705 234.83 75.3509 234.83 76.9024V83.378H233.412V77.0643C233.412 75.8636 233.103 74.9462 232.487 74.3121C231.884 73.6781 231.054 73.361 229.999 73.361C228.916 73.361 228.053 73.6983 227.408 74.3728C226.764 75.0474 226.442 76.039 226.442 77.3476V83.378H225.003V72.329H226.442V74.211C226.798 73.5364 227.312 73.0238 227.984 72.673C228.656 72.3088 229.416 72.1266 230.266 72.1266Z" fill="white"/>
<path d="M247.553 77.2869C247.553 77.7725 247.539 78.1435 247.512 78.3999H238.198C238.24 79.2363 238.445 79.9513 238.815 80.5449C239.185 81.1385 239.672 81.5904 240.275 81.9007C240.878 82.1975 241.536 82.3459 242.249 82.3459C243.181 82.3459 243.962 82.1233 244.592 81.6781C245.237 81.2329 245.662 80.6326 245.867 79.8771H247.389C247.114 80.9564 246.525 81.84 245.62 82.5281C244.73 83.2026 243.606 83.5399 242.249 83.5399C241.193 83.5399 240.248 83.3105 239.411 82.8518C238.575 82.3797 237.917 81.7186 237.438 80.8687C236.972 80.0053 236.739 79.0002 236.739 77.8535C236.739 76.7068 236.972 75.7017 237.438 74.8383C237.904 73.9749 238.555 73.3138 239.391 72.8551C240.227 72.3964 241.18 72.1671 242.249 72.1671C243.318 72.1671 244.25 72.3964 245.045 72.8551C245.853 73.3138 246.47 73.9344 246.895 74.7169C247.334 75.4858 247.553 76.3425 247.553 77.2869ZM246.093 77.2464C246.107 76.4235 245.936 75.7219 245.579 75.1418C245.237 74.5617 244.764 74.1233 244.161 73.8265C243.558 73.5297 242.9 73.3813 242.187 73.3813C241.118 73.3813 240.206 73.7185 239.453 74.3931C238.699 75.0676 238.281 76.0187 238.198 77.2464H246.093Z" fill="white"/>
<path d="M251.009 74.2919C251.324 73.6039 251.803 73.071 252.448 72.6932C253.106 72.3155 253.907 72.1266 254.853 72.1266V73.6039H254.463C253.421 73.6039 252.585 73.8804 251.954 74.4336C251.324 74.9867 251.009 75.9108 251.009 77.2059V83.378H249.569V72.329H251.009V74.2919Z" fill="white"/>
<path d="M263.297 73.5229V80.383C263.297 81.0576 263.428 81.523 263.688 81.7793C263.948 82.0356 264.408 82.1638 265.066 82.1638H266.381V83.378H264.839C263.825 83.378 263.071 83.1486 262.578 82.69C262.084 82.2178 261.838 81.4488 261.838 80.383V73.5229H260.275V72.329H261.838V69.5566H263.297V72.329H266.381V73.5229H263.297Z" fill="white"/>
<path d="M273.052 83.5399C271.996 83.5399 271.044 83.3105 270.194 82.8518C269.358 82.3797 268.693 81.7186 268.2 80.8687C267.72 80.0053 267.48 79.0002 267.48 77.8535C267.48 76.7068 267.727 75.7084 268.22 74.8585C268.714 73.9951 269.385 73.3341 270.235 72.8754C271.085 72.4032 272.038 72.1671 273.093 72.1671C274.148 72.1671 275.101 72.4032 275.951 72.8754C276.814 73.3341 277.486 73.9951 277.966 74.8585C278.459 75.7084 278.706 76.7068 278.706 77.8535C278.706 78.9867 278.459 79.985 277.966 80.8484C277.472 81.7119 276.794 82.3797 275.93 82.8518C275.067 83.3105 274.107 83.5399 273.052 83.5399ZM273.052 82.3055C273.792 82.3055 274.477 82.1436 275.108 81.8198C275.738 81.4825 276.245 80.9834 276.629 80.3223C277.027 79.6478 277.225 78.8248 277.225 77.8535C277.225 76.8821 277.034 76.0659 276.65 75.4049C276.266 74.7304 275.759 74.2312 275.128 73.9074C274.498 73.5701 273.813 73.4015 273.072 73.4015C272.332 73.4015 271.647 73.5701 271.016 73.9074C270.386 74.2312 269.879 74.7304 269.495 75.4049C269.125 76.0659 268.94 76.8821 268.94 77.8535C268.94 78.8248 269.125 79.6478 269.495 80.3223C269.879 80.9834 270.379 81.4825 270.996 81.8198C271.626 82.1436 272.312 82.3055 273.052 82.3055Z" fill="white"/>
<path d="M294.989 72.329L288.328 88.5787H286.827L289.007 83.3173L284.401 72.329H285.984L289.808 81.7591L293.509 72.329H294.989Z" fill="white"/>
<path d="M301.238 83.5399C300.183 83.5399 299.23 83.3105 298.38 82.8518C297.544 82.3797 296.879 81.7186 296.386 80.8687C295.906 80.0053 295.666 79.0002 295.666 77.8535C295.666 76.7068 295.913 75.7084 296.406 74.8585C296.9 73.9951 297.571 73.3341 298.421 72.8754C299.271 72.4032 300.224 72.1671 301.279 72.1671C302.334 72.1671 303.287 72.4032 304.137 72.8754C305 73.3341 305.672 73.9951 306.152 74.8585C306.645 75.7084 306.892 76.7068 306.892 77.8535C306.892 78.9867 306.645 79.985 306.152 80.8484C305.658 81.7119 304.98 82.3797 304.116 82.8518C303.253 83.3105 302.293 83.5399 301.238 83.5399ZM301.238 82.3055C301.978 82.3055 302.663 82.1436 303.294 81.8198C303.924 81.4825 304.432 80.9834 304.815 80.3223C305.213 79.6478 305.412 78.8248 305.412 77.8535C305.412 76.8821 305.22 76.0659 304.836 75.4049C304.452 74.7304 303.945 74.2312 303.314 73.9074C302.684 73.5701 301.999 73.4015 301.258 73.4015C300.518 73.4015 299.833 73.5701 299.202 73.9074C298.572 74.2312 298.065 74.7304 297.681 75.4049C297.311 76.0659 297.126 76.8821 297.126 77.8535C297.126 78.8248 297.311 79.6478 297.681 80.3223C298.065 80.9834 298.565 81.4825 299.182 81.8198C299.812 82.1436 300.498 82.3055 301.238 82.3055Z" fill="white"/>
<path d="M318.623 72.329V83.378H317.184V81.4353C316.855 82.1233 316.348 82.6495 315.663 83.0137C314.977 83.378 314.21 83.5601 313.36 83.5601C312.017 83.5601 310.92 83.1554 310.07 82.3459C309.221 81.523 308.796 80.3358 308.796 78.7844V72.329H310.214V78.6225C310.214 79.8231 310.516 80.7405 311.119 81.3746C311.736 82.0087 312.572 82.3257 313.627 82.3257C314.71 82.3257 315.574 81.9884 316.218 81.3139C316.862 80.6393 317.184 79.6478 317.184 78.3392V72.329H318.623Z" fill="white"/>
<path d="M322.731 74.2919C323.047 73.6039 323.526 73.071 324.17 72.6932C324.828 72.3155 325.63 72.1266 326.576 72.1266V73.6039H326.185C325.144 73.6039 324.308 73.8804 323.677 74.4336C323.047 74.9867 322.731 75.9108 322.731 77.2059V83.378H321.292V72.329H322.731V74.2919Z" fill="white"/>
<path d="M335.02 73.5229V80.383C335.02 81.0576 335.15 81.523 335.411 81.7793C335.671 82.0356 336.13 82.1638 336.788 82.1638H338.104V83.378H336.562C335.548 83.378 334.794 83.1486 334.301 82.69C333.807 82.2178 333.56 81.4488 333.56 80.383V73.5229H331.998V72.329H333.56V69.5566H335.02V72.329H338.104V73.5229H335.02Z" fill="white"/>
<path d="M341.3 74.2919C341.615 73.6039 342.095 73.071 342.739 72.6932C343.397 72.3155 344.199 72.1266 345.145 72.1266V73.6039H344.754C343.712 73.6039 342.876 73.8804 342.246 74.4336C341.615 74.9867 341.3 75.9108 341.3 77.2059V83.378H339.861V72.329H341.3V74.2919Z" fill="white"/>
<path d="M347.413 70.2447C347.125 70.2447 346.878 70.1435 346.672 69.9411C346.467 69.7387 346.364 69.4892 346.364 69.1924C346.364 68.8956 346.467 68.6527 346.672 68.4639C346.878 68.2615 347.125 68.1603 347.413 68.1603C347.7 68.1603 347.947 68.2615 348.153 68.4639C348.358 68.6527 348.461 68.8956 348.461 69.1924C348.461 69.4892 348.358 69.7387 348.153 69.9411C347.947 70.1435 347.7 70.2447 347.413 70.2447ZM348.132 72.329V83.378H346.693V72.329H348.132Z" fill="white"/>
<path d="M352.193 74.7573C352.549 74.0153 353.111 73.4015 353.879 72.9158C354.66 72.4167 355.585 72.1671 356.654 72.1671C357.669 72.1671 358.58 72.4032 359.389 72.8754C360.211 73.3341 360.849 73.9951 361.301 74.8585C361.767 75.7084 362 76.7 362 77.8332C362 78.9665 361.767 79.9648 361.301 80.8282C360.849 81.6916 360.211 82.3594 359.389 82.8316C358.58 83.3038 357.669 83.5399 356.654 83.5399C355.599 83.5399 354.681 83.297 353.899 82.8114C353.118 82.3122 352.549 81.6916 352.193 80.9496V88.5989H350.774V72.329H352.193V74.7573ZM360.54 77.8332C360.54 76.9159 360.355 76.1267 359.985 75.4656C359.629 74.7911 359.135 74.2784 358.505 73.9277C357.874 73.5769 357.162 73.4015 356.367 73.4015C355.599 73.4015 354.893 73.5836 354.249 73.9479C353.619 74.3121 353.118 74.8315 352.748 75.5061C352.378 76.1806 352.193 76.9631 352.193 77.8535C352.193 78.7439 352.378 79.5263 352.748 80.2009C353.118 80.8754 353.619 81.3948 354.249 81.7591C354.893 82.1233 355.599 82.3055 356.367 82.3055C357.162 82.3055 357.874 82.1301 358.505 81.7793C359.135 81.4151 359.629 80.8957 359.985 80.2211C360.355 79.5331 360.54 78.7371 360.54 77.8332Z" fill="white"/>
<path d="M109.554 37.5747C110.047 36.6727 110.752 35.9673 111.668 35.4585C112.608 34.9266 113.724 34.6606 115.017 34.6606C116.568 34.6606 117.966 35.0654 119.211 35.8748C120.456 36.6611 121.431 37.8175 122.136 39.3439C122.865 40.8471 123.229 42.6279 123.229 44.6863C123.229 46.7446 122.865 48.5369 122.136 50.0633C121.431 51.5666 120.456 52.7229 119.211 53.5324C117.966 54.3187 116.568 54.7119 115.017 54.7119C113.724 54.7119 112.608 54.4575 111.668 53.9487C110.752 53.4168 110.047 52.6998 109.554 51.7979V54.469H101.729V28.7979H109.554V37.5747ZM115.299 44.6863C115.299 43.6455 115.029 42.8361 114.488 42.2579C113.948 41.6797 113.255 41.3906 112.409 41.3906C111.563 41.3906 110.87 41.6797 110.329 42.2579C109.789 42.8361 109.519 43.6455 109.519 44.6863C109.519 45.727 109.789 46.5364 110.329 47.1146C110.87 47.6928 111.563 47.9819 112.409 47.9819C113.255 47.9819 113.948 47.6928 114.488 47.1146C115.029 46.5364 115.299 45.727 115.299 44.6863Z" fill="white"/>
<path d="M146.726 34.9035V54.469H138.902V51.4856C138.291 52.4107 137.469 53.1624 136.435 53.7405C135.424 54.3187 134.214 54.6078 132.805 54.6078C130.525 54.6078 128.74 53.8562 127.447 52.3529C126.178 50.8496 125.544 48.8145 125.544 46.2473V34.9035H133.333V45.276C133.333 46.2011 133.58 46.9412 134.073 47.4962C134.59 48.0281 135.272 48.2941 136.118 48.2941C136.987 48.2941 137.668 48.0281 138.162 47.4962C138.655 46.9412 138.902 46.2011 138.902 45.276V34.9035H146.726Z" fill="white"/>
<path d="M154.208 33.3424C152.845 33.3424 151.752 32.9839 150.93 32.267C150.108 31.55 149.696 30.6481 149.696 29.5611C149.696 28.451 150.108 27.5375 150.93 26.8205C151.752 26.0805 152.845 25.7104 154.208 25.7104C155.547 25.7104 156.628 26.0805 157.45 26.8205C158.273 27.5375 158.684 28.451 158.684 29.5611C158.684 30.6481 158.273 31.55 157.45 32.267C156.628 32.9839 155.547 33.3424 154.208 33.3424ZM158.085 34.9035V54.469H150.26V34.9035H158.085Z" fill="white"/>
<path d="M169.443 28.7979V54.469H161.619V28.7979H169.443Z" fill="white"/>
<path d="M171.92 44.6863C171.92 42.6279 172.272 40.8471 172.977 39.3439C173.705 37.8175 174.692 36.6611 175.938 35.8748C177.183 35.0654 178.581 34.6606 180.132 34.6606C181.424 34.6606 182.528 34.9266 183.445 35.4585C184.385 35.9673 185.101 36.6727 185.595 37.5747V28.7979H193.419V54.469H185.595V51.7979C185.101 52.6998 184.385 53.4168 183.445 53.9487C182.528 54.4575 181.424 54.7119 180.132 54.7119C178.581 54.7119 177.183 54.3187 175.938 53.5324C174.692 52.7229 173.705 51.5666 172.977 50.0633C172.272 48.5369 171.92 46.7446 171.92 44.6863ZM185.63 44.6863C185.63 43.6455 185.36 42.8361 184.819 42.2579C184.279 41.6797 183.586 41.3906 182.74 41.3906C181.894 41.3906 181.201 41.6797 180.66 42.2579C180.12 42.8361 179.85 43.6455 179.85 44.6863C179.85 45.727 180.12 46.5364 180.66 47.1146C181.201 47.6928 181.894 47.9819 182.74 47.9819C183.586 47.9819 184.279 47.6928 184.819 47.1146C185.36 46.5364 185.63 45.727 185.63 44.6863Z" fill="white"/>
<path d="M225.373 34.9035L212.649 63.8355H204.085L209.089 53.4977L200.807 34.9035H209.512L213.248 44.825L216.738 34.9035H225.373Z" fill="white"/>
<path d="M236.22 54.7119C234.222 54.7119 232.425 54.3072 230.827 53.4977C229.229 52.6883 227.972 51.5319 227.056 50.0286C226.163 48.5022 225.717 46.7214 225.717 44.6863C225.717 42.6511 226.163 40.8818 227.056 39.3786C227.972 37.8522 229.229 36.6843 230.827 35.8748C232.425 35.0654 234.222 34.6606 236.22 34.6606C238.217 34.6606 240.014 35.0654 241.612 35.8748C243.21 36.6843 244.455 37.8522 245.348 39.3786C246.265 40.8818 246.723 42.6511 246.723 44.6863C246.723 46.7214 246.265 48.5022 245.348 50.0286C244.455 51.5319 243.21 52.6883 241.612 53.4977C240.014 54.3072 238.217 54.7119 236.22 54.7119ZM236.22 48.0513C236.948 48.0513 237.559 47.7737 238.052 47.2187C238.546 46.6405 238.793 45.7964 238.793 44.6863C238.793 43.5762 238.546 42.7436 238.052 42.1885C237.559 41.6103 236.948 41.3213 236.22 41.3213C235.491 41.3213 234.88 41.6103 234.387 42.1885C233.894 42.7436 233.647 43.5762 233.647 44.6863C233.647 45.7964 233.882 46.6405 234.352 47.2187C234.845 47.7737 235.468 48.0513 236.22 48.0513Z" fill="white"/>
<path d="M270.222 34.9035V54.469H262.398V51.4856C261.787 52.4107 260.965 53.1624 259.931 53.7405C258.92 54.3187 257.71 54.6078 256.3 54.6078C254.021 54.6078 252.235 53.8562 250.943 52.3529C249.674 50.8496 249.04 48.8145 249.04 46.2473V34.9035H256.829V45.276C256.829 46.2011 257.076 46.9412 257.569 47.4962C258.086 48.0281 258.768 48.2941 259.613 48.2941C260.483 48.2941 261.164 48.0281 261.658 47.4962C262.151 46.9412 262.398 46.2011 262.398 45.276V34.9035H270.222Z" fill="white"/>
<path d="M281.581 38.5113C282.379 37.3781 283.355 36.4761 284.506 35.8054C285.657 35.1116 286.856 34.7647 288.101 34.7647V42.9864H285.88C284.4 42.9864 283.308 43.2408 282.603 43.7496C281.921 44.2584 281.581 45.1604 281.581 46.4555V54.469H273.756V34.9035H281.581V38.5113Z" fill="white"/>
<path d="M308.568 47.9125V54.469H305.608C300.157 54.469 297.431 51.7979 297.431 46.4555V41.3213H294.964V34.9035H297.431V30.1855H305.255V34.9035H308.498V41.3213H305.255V46.5942C305.255 47.0568 305.361 47.3921 305.573 47.6003C305.808 47.8084 306.184 47.9125 306.7 47.9125H308.568Z" fill="white"/>
<path d="M319.373 38.5113C320.172 37.3781 321.147 36.4761 322.298 35.8054C323.449 35.1116 324.648 34.7647 325.893 34.7647V42.9864H323.673C322.192 42.9864 321.1 43.2408 320.395 43.7496C319.713 44.2584 319.373 45.1604 319.373 46.4555V54.469H311.548V34.9035H319.373V38.5113Z" fill="white"/>
<path d="M331.948 33.3424C330.585 33.3424 329.493 32.9839 328.67 32.267C327.848 31.55 327.437 30.6481 327.437 29.5611C327.437 28.451 327.848 27.5375 328.67 26.8205C329.493 26.0805 330.585 25.7104 331.948 25.7104C333.287 25.7104 334.368 26.0805 335.191 26.8205C336.013 27.5375 336.424 28.451 336.424 29.5611C336.424 30.6481 336.013 31.55 335.191 32.267C334.368 32.9839 333.287 33.3424 331.948 33.3424ZM335.825 34.9035V54.469H328.001V34.9035H335.825Z" fill="white"/>
<path d="M347.183 37.5747C347.677 36.6727 348.382 35.9673 349.298 35.4585C350.238 34.9266 351.354 34.6606 352.646 34.6606C354.197 34.6606 355.595 35.0654 356.841 35.8748C358.086 36.6611 359.061 37.8175 359.766 39.3439C360.494 40.8471 360.859 42.6279 360.859 44.6863C360.859 46.7446 360.494 48.5369 359.766 50.0633C359.061 51.5666 358.086 52.7229 356.841 53.5324C355.595 54.3187 354.197 54.7119 352.646 54.7119C351.354 54.7119 350.238 54.4575 349.298 53.9487C348.382 53.4168 347.677 52.6998 347.183 51.7979V63.8355H339.359V34.9035H347.183V37.5747ZM352.928 44.6863C352.928 43.6455 352.658 42.8361 352.118 42.2579C351.577 41.6797 350.884 41.3906 350.038 41.3906C349.192 41.3906 348.499 41.6797 347.959 42.2579C347.418 42.8361 347.148 43.6455 347.148 44.6863C347.148 45.727 347.418 46.5364 347.959 47.1146C348.499 47.6928 349.192 47.9819 350.038 47.9819C350.884 47.9819 351.577 47.6928 352.118 47.1146C352.658 46.5364 352.928 45.727 352.928 44.6863Z" fill="white"/>
<path d="M56.9258 29.2061C61.159 30.946 65.0234 33.4512 68.3188 36.5923C71.6408 21.0568 70.9759 10.4201 65.9704 8.32115L65.965 8.31885C60.9594 6.22339 52.7082 13.1181 43.6268 26.2339C48.2093 26.3983 52.7205 27.4066 56.9258 29.2061Z" fill="white"/>
<path d="M21.4533 94.3251C18.7982 104.809 20.2715 107.599 22.7829 108.652C25.2942 109.705 28.3488 108.812 34.1949 99.6687L21.4533 94.3251Z" fill="white"/>
<path d="M55.4176 75.6162C58.3404 68.1789 61.1708 60.2613 63.8159 51.8729C65.1715 47.5737 66.4176 43.3584 67.554 39.2268C60.7531 32.7006 51.72 28.9111 42.2269 28.6018C39.9746 32.3078 37.7337 36.149 35.5042 40.1254C31.1657 47.873 27.2981 55.4258 23.8438 62.7119C14.5886 64.8704 5.51614 72.5345 0 85.2762L11.6921 90.1795C13.83 91.0793 15.3354 91.0794 16.268 88.9328L16.2783 88.8893L41.7601 99.5766C40.7727 101.849 41.8021 102.808 43.9505 103.709L55.6864 108.632C61.3065 95.6456 60.5245 83.637 55.4176 75.6162ZM53.2719 37.645C54.2334 38.0482 55.0519 38.7229 55.6239 39.5839C56.1958 40.445 56.4955 41.4537 56.485 42.4823C56.4745 43.511 56.1543 44.5135 55.565 45.3631C54.9756 46.2126 54.1435 46.8711 53.1739 47.2552C52.2043 47.6393 51.1408 47.7317 50.1178 47.5209C49.0948 47.31 48.1583 46.8053 47.4268 46.0706C46.6952 45.3359 46.2015 44.4041 46.008 43.3932C45.8145 42.3823 45.9298 41.3375 46.3395 40.3912C46.8891 39.1223 47.928 38.1203 49.228 37.6053C50.528 37.0903 51.9826 37.1046 53.2719 37.645ZM46.5241 53.2332C47.4855 53.6364 48.3039 54.311 48.8754 55.1724C49.4473 56.0332 49.7469 57.0413 49.7362 58.0702C49.7257 59.0984 49.4054 60.1012 48.816 60.9505C48.2267 61.7999 47.3948 62.4578 46.4254 62.8417C45.4557 63.2262 44.3923 63.3186 43.3695 63.1078C42.3467 62.8969 41.4106 62.3917 40.6791 61.6573C39.9476 60.9228 39.4538 59.9913 39.2606 58.9801C39.0671 57.9695 39.1825 56.9249 39.5921 55.9787C40.1416 54.7099 41.1806 53.7077 42.4804 53.1932C43.7805 52.6782 45.235 52.6926 46.5241 53.2332ZM35.6335 78.3905C34.6721 77.9873 33.8538 77.3127 33.2822 76.4513C32.7104 75.5905 32.4107 74.5823 32.4215 73.5535C32.4319 72.5252 32.7523 71.5225 33.3417 70.6731C33.931 69.8237 34.7629 69.1658 35.7326 68.7813C36.702 68.3974 37.7653 68.305 38.7882 68.5159C39.811 68.7267 40.7473 69.2314 41.4785 69.9664C42.2101 70.7008 42.7038 71.6323 42.8971 72.6435C43.0907 73.6542 42.9753 74.6988 42.5656 75.6449C42.2936 76.2731 41.8986 76.8424 41.4028 77.3208C40.9073 77.7986 40.3207 78.1761 39.677 78.431C39.0332 78.6859 38.3448 78.8136 37.6508 78.8066C36.9569 78.7996 36.2718 78.6584 35.6335 78.3905Z" fill="white"/>
<path d="M52.4109 39.6416C51.6618 39.34 50.8223 39.3407 50.0737 39.6434C49.3251 39.9462 48.7276 40.5267 48.4104 41.2596C48.0932 41.9924 48.0816 42.8187 48.3783 43.5598C48.675 44.3009 49.256 44.8973 49.9959 45.2203C50.7475 45.5355 51.5955 45.5439 52.3534 45.2437C53.1113 44.9434 53.717 44.3592 54.0373 43.6194C54.3575 42.8796 54.3661 42.0449 54.0611 41.2989C53.7561 40.553 53.1625 39.9568 52.4109 39.6416Z" fill="white"/>
<path d="M45.6577 55.2274C44.9087 54.9256 44.0691 54.9263 43.3205 55.2293C42.5718 55.5322 41.9743 56.1128 41.6573 56.8452C41.34 57.5782 41.3283 58.4046 41.6252 59.1455C41.9217 59.8869 42.5028 60.4834 43.2427 60.8061C43.9942 61.1217 44.8423 61.1302 45.6005 60.8299C46.3584 60.5301 46.9645 59.9454 47.2849 59.206C47.6054 58.4659 47.6141 57.6312 47.309 56.8854C47.0043 56.1391 46.4092 55.543 45.6577 55.2274Z" fill="white"/>
<path d="M38.9145 70.8182L38.9115 70.817C38.1626 70.5151 37.323 70.5158 36.5744 70.8188C35.8257 71.1218 35.2282 71.7023 34.9112 72.4347C34.5938 73.1677 34.5823 73.9942 34.879 74.735C35.1756 75.4765 35.7566 76.073 36.4965 76.3956C37.2482 76.7106 38.096 76.7197 38.8541 76.4193C39.6121 76.1189 40.2179 75.5347 40.5381 74.7952C40.8583 74.0557 40.867 73.221 40.5622 72.4746C40.2571 71.7289 39.666 71.1338 38.9145 70.8182Z" fill="white"/>
<path d="M71.4664 37.5271C74.2105 24.6915 75.7264 8.64647 67.3499 5.12102L67.2671 5.08616C60.5405 2.34593 51.6149 8.92301 40.7361 24.6351L40.7128 24.6689L37.4246 29.6302C35.983 31.8934 34.5442 34.2669 33.1351 36.7056C32.8547 37.1906 32.5745 37.6804 32.2943 38.1749C30.4341 41.4593 28.5769 44.949 26.7606 48.5701C26.0657 47.3463 25.4501 46.0806 24.9177 44.7802C22.3987 38.6081 21.8569 31.8256 23.3648 25.3419C24.8727 18.8581 28.3583 12.983 33.3544 8.50419C38.3504 4.02525 44.6181 1.15663 51.3173 0.282769C58.0164 -0.59109 64.8269 0.571689 70.8358 3.61511C76.8446 6.65851 81.7647 11.4372 84.9364 17.3105C88.1084 23.184 89.3799 29.8711 88.581 36.4759C87.7827 43.0808 84.9518 49.2876 80.4684 54.2642C75.9843 59.2405 70.0623 62.7492 63.4957 64.3195C64.9325 60.4262 66.2393 56.59 67.3869 52.8931C67.5542 52.3534 67.7191 51.8151 67.8818 51.2782C68.6912 48.592 69.4374 45.9263 70.0946 43.34L71.4664 37.5271Z" fill="white"/>
</svg>
